<?xml version="1.0" encoding="UTF-8"?>
<svg width="163px" height="269px" viewBox="0 0 163 269" version="1.1" xmlns="http://www.w3.org/2000/svg" xmlns:xlink="http://www.w3.org/1999/xlink">
    <!-- Generator: Sketch 62 (91390) - https://sketch.com -->
    <title>blue-nofill-text-bottom</title>
    <desc>Created with Sketch.</desc>
    <g id="Page-1" stroke="none" stroke-width="1" fill="none" fill-rule="evenodd">
        <g id="blue-nofill-text-bottom" fill="#0066CC" fill-rule="nonzero">
            <path d="M162,0 L162,162 L0,162 L0,0 L162,0 Z M96.36,42.4 L68.88,42.4 L68.88,124 L96.36,124 C103.56,124 109.48,123.14 114.12,121.42 C118.76,119.7 122.3,116.94 124.74,113.14 C127.18,109.34 128.84,105.02 129.72,100.18 C130.6,95.34 131.04,89.24 131.04,81.88 C131.04,74.52 130.56,68.54 129.6,63.94 C128.64,59.34 126.9,55.34 124.38,51.94 C121.86,48.54 118.32,46.1 113.76,44.62 C109.362857,43.1928571 103.812704,42.453801 97.1095408,42.4028316 L96.36,42.4 Z M96.36,56.8 C100.36,56.8 103.54,57.22 105.9,58.06 C108.26,58.9 110.04,60.44 111.24,62.68 C112.44,64.92 113.2,67.4 113.52,70.12 C113.84,72.84 114,76.46 114,80.98 C114,85.5 113.92,89.04 113.76,91.6 C113.2,98.08 111.76,102.56 109.44,105.04 C106.72,108.08 102.36,109.6 96.36,109.6 L85.44,109.6 L85.44,56.8 L96.36,56.8 Z M40.0734796,63 C37.1363802,63 34.7172859,63.9396177 32.8318307,65.8309902 C30.9463755,67.7284313 30,70.0951755 30,72.9474057 C30,75.8006473 30.9588827,78.1886315 32.8578873,80.1133812 C34.7527229,82.036108 37.1676481,83 40.0984939,83 C43.0230861,83 45.4036167,82.0543137 47.2442545,80.1690098 C49.0734275,78.274603 50,75.9149388 50,73.0708 C50,70.230707 49.0734275,67.8396885 47.2442545,65.9078588 C45.4036167,63.9669263 43.0126635,63 40.0734796,63 Z" id="Combined-Shape"></path>
            <path d="M5.8,195.84 C7,195.84 7.98666667,195.696667 8.76,195.41 C9.53333333,195.123333 10.1233333,194.663333 10.53,194.03 C10.9366667,193.396667 11.2133333,192.676667 11.36,191.87 C11.5066667,191.063333 11.58,190.046667 11.58,188.82 C11.58,187.593333 11.5,186.596667 11.34,185.83 C11.18,185.063333 10.89,184.396667 10.47,183.83 C10.05,183.263333 9.46,182.856667 8.7,182.61 C7.94,182.363333 6.97333333,182.24 5.8,182.24 L5.8,182.24 L1.22,182.24 L1.22,195.84 L5.8,195.84 Z M5.8,193.44 L3.98,193.44 L3.98,184.64 L5.8,184.64 C6.46666667,184.64 6.99666667,184.71 7.39,184.85 C7.78333333,184.99 8.08,185.246667 8.28,185.62 C8.48,185.993333 8.60666667,186.406667 8.66,186.86 C8.71333333,187.313333 8.74,187.916667 8.74,188.67 C8.74,189.423333 8.72666667,190.013333 8.7,190.44 C8.60666667,191.52 8.36666667,192.266667 7.98,192.68 C7.52666667,193.186667 6.8,193.44 5.8,193.44 L5.8,193.44 Z M16.74,195.84 L16.74,182.24 L13.98,182.24 L13.98,195.84 L16.74,195.84 Z M22.46,195.84 L22.46,191.88 L24.7,191.88 C26.2866667,191.88 27.49,191.456667 28.31,190.61 C29.13,189.763333 29.54,188.546667 29.54,186.96 C29.54,183.813333 27.9266667,182.24 24.7,182.24 L24.7,182.24 L19.7,182.24 L19.7,195.84 L22.46,195.84 Z M24.68,189.52 L22.46,189.52 L22.46,184.6 L24.68,184.6 C25.3866667,184.6 25.9066667,184.783333 26.24,185.15 C26.5733333,185.516667 26.74,186.12 26.74,186.96 C26.74,188.666667 26.0533333,189.52 24.68,189.52 L24.68,189.52 Z M33.1,195.84 L33.64,193.38 L38.4,193.38 L38.94,195.84 L41.7,195.84 L38.64,182.24 L33.4,182.24 L30.34,195.84 L33.1,195.84 Z M37.88,190.98 L34.16,190.98 L35.54,184.52 L36.5,184.52 L37.88,190.98 Z M46.28,195.84 L46.28,191.28 L48.94,191.28 L50.52,195.84 L53.54,195.84 L51.6,190.64 C52.9333333,189.8 53.6,188.493333 53.6,186.72 C53.6,183.733333 52,182.24 48.8,182.24 L48.8,182.24 L43.52,182.24 L43.52,195.84 L46.28,195.84 Z M48.84,188.92 L46.28,188.92 L46.28,184.6 L48.8,184.6 C49.44,184.6 49.93,184.793333 50.27,185.18 C50.61,185.566667 50.78,186.086667 50.78,186.74 C50.78,187.393333 50.62,187.92 50.3,188.32 C49.98,188.72 49.4933333,188.92 48.84,188.92 L48.84,188.92 Z M61.1,195.84 L61.1,184.68 L64.7,184.68 L64.7,182.24 L54.7,182.24 L54.7,184.68 L58.34,184.68 L58.34,195.84 L61.1,195.84 Z M69.2,195.84 L69.2,182.24 L66.44,182.24 L66.44,195.84 L69.2,195.84 Z M74.92,195.84 L74.92,185.32 L75.22,185.32 L77.88,195.24 L80.64,195.24 L83.3,185.32 L83.6,185.32 L83.6,195.84 L86.36,195.84 L86.36,182.24 L81.66,182.24 L79.26,192.16 L76.86,182.24 L72.16,182.24 L72.16,195.84 L74.92,195.84 Z M98.12,195.84 L98.12,193.44 L92.08,193.44 L92.08,190.18 L96.92,190.18 L96.92,187.82 L92.08,187.82 L92.08,184.64 L98.12,184.64 L98.12,182.24 L89.32,182.24 L89.32,195.84 L98.12,195.84 Z M103.16,195.84 L103.16,184.64 L103.36,184.64 L106.76,195.84 L111.3,195.84 L111.3,182.24 L108.54,182.24 L108.54,193.44 L108.34,193.44 L105.06,182.24 L100.4,182.24 L100.4,195.84 L103.16,195.84 Z M119.44,195.84 L119.44,184.68 L123.04,184.68 L123.04,182.24 L113.04,182.24 L113.04,184.68 L116.68,184.68 L116.68,195.84 L119.44,195.84 Z M129.82,196.08 C131.886667,196.08 133.34,195.52 134.18,194.4 C135.033333,193.266667 135.46,191.5 135.46,189.1 C135.46,186.7 135.036667,184.916667 134.19,183.75 C133.343333,182.583333 131.886667,182 129.82,182 C127.753333,182 126.296667,182.583333 125.45,183.75 C124.603333,184.916667 124.18,186.7 124.18,189.1 C124.18,191.5 124.603333,193.263333 125.45,194.39 C126.296667,195.516667 127.753333,196.08 129.82,196.08 Z M129.82,193.68 C128.74,193.68 128,193.333333 127.6,192.64 C127.213333,191.933333 127.02,190.756667 127.02,189.11 C127.02,187.463333 127.22,186.266667 127.62,185.52 C128.02,184.773333 128.753333,184.4 129.82,184.4 C130.886667,184.4 131.62,184.773333 132.02,185.52 C132.42,186.266667 132.62,187.463333 132.62,189.11 C132.62,190.756667 132.423333,191.93 132.03,192.63 C131.636667,193.33 130.9,193.68 129.82,193.68 Z M2.72,219.84 L2.72,215 L6.56,215 C9.44,215 10.88,213.446667 10.88,210.34 C10.88,208.846667 10.53,207.74 9.83,207.02 C9.13,206.3 8.04,205.94 6.56,205.94 L6.56,205.94 L1.48,205.94 L1.48,219.84 L2.72,219.84 Z M6.56,213.9 L2.72,213.9 L2.72,207.04 L6.56,207.04 C7.62666667,207.04 8.4,207.306667 8.88,207.84 C9.36,208.373333 9.6,209.206667 9.6,210.34 C9.6,212.713333 8.58666667,213.9 6.56,213.9 L6.56,213.9 Z M21.68,219.84 L21.68,218.74 L14.58,218.74 L14.58,213.32 L20.48,213.32 L20.48,212.22 L14.58,212.22 L14.58,207.06 L21.68,207.06 L21.68,205.94 L13.34,205.94 L13.34,219.84 L21.68,219.84 Z M25.62,219.84 L25.62,214.36 L29.86,214.36 L32.6,219.84 L33.98,219.84 L31.12,214.12 C32.9066667,213.64 33.8,212.286667 33.8,210.06 C33.8,208.633333 33.4433333,207.59 32.73,206.93 C32.0166667,206.27 30.9333333,205.94 29.48,205.94 L29.48,205.94 L24.38,205.94 L24.38,219.84 L25.62,219.84 Z M29.48,213.26 L25.62,213.26 L25.62,207.04 L29.48,207.04 C30.52,207.04 31.2866667,207.286667 31.78,207.78 C32.2733333,208.273333 32.52,209.04 32.52,210.08 C32.52,212.2 31.5066667,213.26 29.48,213.26 L29.48,213.26 Z M48.68,219.84 L48.68,218.72 L42.32,218.72 L42.32,205.94 L41.08,205.94 L41.08,219.84 L48.68,219.84 Z M50.68,219.84 L51.78,216 L57.98,216 L59.1,219.84 L60.32,219.84 L56.34,205.94 L53.44,205.94 L49.44,219.84 L50.68,219.84 Z M57.68,214.9 L52.08,214.9 L54.34,207.02 L55.42,207.02 L57.68,214.9 Z M5.64,243.84 L5.64,231.06 L10,231.06 L10,229.94 L-5.68434189e-14,229.94 L-5.68434189e-14,231.06 L4.4,231.06 L4.4,243.84 L5.64,243.84 Z M13.24,243.84 L13.24,238.36 L17.48,238.36 L20.22,243.84 L21.6,243.84 L18.74,238.12 C20.5266667,237.64 21.42,236.286667 21.42,234.06 C21.42,232.633333 21.0633333,231.59 20.35,230.93 C19.6366667,230.27 18.5533333,229.94 17.1,229.94 L17.1,229.94 L12,229.94 L12,243.84 L13.24,243.84 Z M17.1,237.26 L13.24,237.26 L13.24,231.04 L17.1,231.04 C18.14,231.04 18.9066667,231.286667 19.4,231.78 C19.8933333,232.273333 20.14,233.04 20.14,234.08 C20.14,236.2 19.1266667,237.26 17.1,237.26 L17.1,237.26 Z M24.3,243.84 L25.4,240 L31.6,240 L32.72,243.84 L33.94,243.84 L29.96,229.94 L27.06,229.94 L23.06,243.84 L24.3,243.84 Z M31.3,238.9 L25.7,238.9 L27.96,231.02 L29.04,231.02 L31.3,238.9 Z M39.9,244 C41.3266667,244 42.41,243.67 43.15,243.01 C43.89,242.35 44.26,241.273333 44.26,239.78 C44.26,238.62 43.9566667,237.793333 43.35,237.3 C42.7433333,236.806667 41.73,236.42 40.31,236.14 C38.89,235.86 37.9366667,235.553333 37.45,235.22 C36.9633333,234.886667 36.72,234.24 36.72,233.28 C36.72,231.64 37.7933333,230.82 39.94,230.82 C40.7133333,230.82 42.02,230.933333 43.86,231.16 L43.86,231.16 L43.96,230.1 L43.3,230 C41.8866667,229.813333 40.74,229.72 39.86,229.72 C36.9266667,229.72 35.46,230.933333 35.46,233.36 C35.46,234.04 35.5466667,234.603333 35.72,235.05 C35.8933333,235.496667 36.1833333,235.863333 36.59,236.15 C36.9966667,236.436667 37.4333333,236.656667 37.9,236.81 C38.3666667,236.963333 39.1033333,237.133333 40.11,237.32 C41.1166667,237.506667 41.85,237.77 42.31,238.11 C42.77,238.45 43,239.09 43,240.03 C43,240.97 42.74,241.683333 42.22,242.17 C41.7,242.656667 40.94,242.9 39.94,242.9 C38.94,242.9 37.5266667,242.786667 35.7,242.56 L35.7,242.56 L35.56,243.62 L36.28,243.72 C37.6533333,243.906667 38.86,244 39.9,244 Z M48.24,243.84 L48.24,237.9 L54.16,237.9 L54.16,236.8 L48.24,236.8 L48.24,231.06 L55.2,231.06 L55.2,229.94 L47,229.94 L47,243.84 L48.24,243.84 Z M62.39,244.04 C64.45,244.04 65.87,243.486667 66.65,242.38 C67.43,241.273333 67.82,239.48 67.82,237 C67.82,234.52 67.4233333,232.69 66.63,231.51 C65.8366667,230.33 64.42,229.74 62.38,229.74 C60.34,229.74 58.9266667,230.333333 58.14,231.52 C57.3533333,232.706667 56.96,234.523333 56.96,236.97 C56.96,239.416667 57.35,241.206667 58.13,242.34 C58.91,243.473333 60.33,244.04 62.39,244.04 Z M62.39,242.92 C60.7433333,242.92 59.64,242.456667 59.08,241.53 C58.52,240.603333 58.24,239.08 58.24,236.96 C58.24,235.92 58.2966667,235.046667 58.41,234.34 C58.5233333,233.633333 58.7333333,233.006667 59.04,232.46 C59.6133333,231.393333 60.7266667,230.86 62.38,230.86 C63.98,230.86 65.0733333,231.353333 65.66,232.34 C66.2466667,233.326667 66.54,234.883333 66.54,237.01 C66.54,239.136667 66.26,240.653333 65.7,241.56 C65.14,242.466667 64.0366667,242.92 62.39,242.92 Z M71.98,243.84 L71.98,238.36 L76.22,238.36 L78.96,243.84 L80.34,243.84 L77.48,238.12 C79.2666667,237.64 80.16,236.286667 80.16,234.06 C80.16,232.633333 79.8033333,231.59 79.09,230.93 C78.3766667,230.27 77.2933333,229.94 75.84,229.94 L75.84,229.94 L70.74,229.94 L70.74,243.84 L71.98,243.84 Z M75.84,237.26 L71.98,237.26 L71.98,231.04 L75.84,231.04 C76.88,231.04 77.6466667,231.286667 78.14,231.78 C78.6333333,232.273333 78.88,233.04 78.88,234.08 C78.88,236.2 77.8666667,237.26 75.84,237.26 L75.84,237.26 Z M84.28,243.84 L84.28,231.22 L84.56,231.22 L88.92,243.38 L90.38,243.38 L94.74,231.22 L95.02,231.22 L95.02,243.84 L96.26,243.84 L96.26,229.94 L93.94,229.94 L89.66,242.1 L85.36,229.94 L83.04,229.94 L83.04,243.84 L84.28,243.84 Z M99.74,243.84 L100.84,240 L107.04,240 L108.16,243.84 L109.38,243.84 L105.4,229.94 L102.5,229.94 L98.5,243.84 L99.74,243.84 Z M106.74,238.9 L101.14,238.9 L103.4,231.02 L104.48,231.02 L106.74,238.9 Z M119.74,243.86 L119.74,242.74 L112.12,242.74 L112.12,242.32 L119.74,231.6 L119.74,229.94 L110.74,229.94 L110.74,231.06 L118.36,231.06 L118.36,231.5 L110.74,242.22 L110.74,243.86 L119.74,243.86 Z M123.6,243.84 L123.6,229.94 L122.36,229.94 L122.36,243.84 L123.6,243.84 Z M131.97,244.04 C134.03,244.04 135.45,243.486667 136.23,242.38 C137.01,241.273333 137.4,239.48 137.4,237 C137.4,234.52 137.003333,232.69 136.21,231.51 C135.416667,230.33 134,229.74 131.96,229.74 C129.92,229.74 128.506667,230.333333 127.72,231.52 C126.933333,232.706667 126.54,234.523333 126.54,236.97 C126.54,239.416667 126.93,241.206667 127.71,242.34 C128.49,243.473333 129.91,244.04 131.97,244.04 Z M131.97,242.92 C130.323333,242.92 129.22,242.456667 128.66,241.53 C128.1,240.603333 127.82,239.08 127.82,236.96 C127.82,235.92 127.876667,235.046667 127.99,234.34 C128.103333,233.633333 128.313333,233.006667 128.62,232.46 C129.193333,231.393333 130.306667,230.86 131.96,230.86 C133.56,230.86 134.653333,231.353333 135.24,232.34 C135.826667,233.326667 136.12,234.883333 136.12,237.01 C136.12,239.136667 135.84,240.653333 135.28,241.56 C134.72,242.466667 133.616667,242.92 131.97,242.92 Z M141.56,243.84 L141.56,231.06 L142,231.06 L147.86,243.84 L150.26,243.84 L150.26,229.94 L149.04,229.94 L149.04,242.74 L148.58,242.74 L142.76,229.94 L140.32,229.94 L140.32,243.84 L141.56,243.84 Z M162.1,243.84 L162.1,242.74 L155,242.74 L155,237.32 L160.9,237.32 L160.9,236.22 L155,236.22 L155,231.06 L162.1,231.06 L162.1,229.94 L153.76,229.94 L153.76,243.84 L162.1,243.84 Z M6.54,267.84 C9.83333333,267.84 11.48,265.46 11.48,260.7 C11.48,256.193333 9.83333333,253.94 6.54,253.94 L6.54,253.94 L1.48,253.94 L1.48,267.84 L6.54,267.84 Z M6.54,266.74 L2.72,266.74 L2.72,255.06 L6.54,255.06 C8.98,255.06 10.2,256.94 10.2,260.7 C10.2,264.726667 8.98,266.74 6.54,266.74 L6.54,266.74 Z M15.64,267.84 L15.64,253.94 L14.4,253.94 L14.4,267.84 L15.64,267.84 Z M23.9,268.04 C24.54,268.04 25.3466667,267.976667 26.32,267.85 C27.2933333,267.723333 27.9733333,267.62 28.36,267.54 L28.36,267.54 L28.36,260.82 L24.58,260.82 L24.58,261.92 L27.14,261.92 L27.14,266.6 C25.9666667,266.813333 24.9066667,266.92 23.96,266.92 C22.36,266.92 21.2766667,266.446667 20.71,265.5 C20.1433333,264.553333 19.86,263.026667 19.86,260.92 C19.86,258.813333 20.1433333,257.276667 20.71,256.31 C21.2766667,255.343333 22.3666667,254.86 23.98,254.86 C25.1933333,254.86 26.6333333,255.013333 28.3,255.32 L28.3,255.32 L28.36,254.26 L27.7,254.12 C26.4066667,253.866667 25.1333333,253.74 23.88,253.74 C21.8266667,253.74 20.42,254.38 19.66,255.66 C19.26,256.313333 18.98,257.06 18.82,257.9 C18.66,258.74 18.58,259.753333 18.58,260.94 C18.58,263.326667 18.9666667,265.106667 19.74,266.28 C20.5133333,267.453333 21.9,268.04 23.9,268.04 Z M32.7,267.84 L32.7,253.94 L31.46,253.94 L31.46,267.84 L32.7,267.84 Z M40.34,267.84 L40.34,255.06 L44.7,255.06 L44.7,253.94 L34.7,253.94 L34.7,255.06 L39.1,255.06 L39.1,267.84 L40.34,267.84 Z M46.7,267.84 L47.8,264 L54,264 L55.12,267.84 L56.34,267.84 L52.36,253.94 L49.46,253.94 L45.46,267.84 L46.7,267.84 Z M53.7,262.9 L48.1,262.9 L50.36,255.02 L51.44,255.02 L53.7,262.9 Z M66.18,267.84 L66.18,266.72 L59.82,266.72 L59.82,253.94 L58.58,253.94 L58.58,267.84 L66.18,267.84 Z M76.52,267.84 L76.52,266.74 L69.42,266.74 L69.42,261.32 L75.32,261.32 L75.32,260.22 L69.42,260.22 L69.42,255.06 L76.52,255.06 L76.52,253.94 L68.18,253.94 L68.18,267.84 L76.52,267.84 Z" id="DIPARTIMENTOPERLATRASFORMAZIONEDIGITALE"></path>
        </g>
    </g>
</svg>